<svg width="196" height="145" viewBox="0 0 196 145" fill="none" xmlns="http://www.w3.org/2000/svg">
<path d="M80.1818 23.1818H88.6364V73.0909C88.6364 77.5455 87.8182 81.3295 86.1818 84.4432C84.5455 87.5568 82.2386 89.9205 79.2614 91.5341C76.2841 93.1477 72.7727 93.9545 68.7273 93.9545C64.9091 93.9545 61.5114 93.2614 58.5341 91.875C55.5568 90.4659 53.2159 88.4659 51.5114 85.875C49.8068 83.2841 48.9545 80.2045 48.9545 76.6364H57.2727C57.2727 78.6136 57.7614 80.3409 58.7386 81.8182C59.7386 83.2727 61.1023 84.4091 62.8295 85.2273C64.5568 86.0455 66.5227 86.4545 68.7273 86.4545C71.1591 86.4545 73.2273 85.9432 74.9318 84.9205C76.6364 83.8977 77.9318 82.3977 78.8182 80.4205C79.7273 78.4205 80.1818 75.9773 80.1818 73.0909V23.1818ZM105.58 93V23.1818H114.034V85.5H146.489V93H105.58Z" fill="black"/>
<path d="M8.79545 121.545H10.9091V134.023C10.9091 135.136 10.7045 136.082 10.2955 136.861C9.88636 137.639 9.30966 138.23 8.56534 138.634C7.82102 139.037 6.94318 139.239 5.93182 139.239C4.97727 139.239 4.12784 139.065 3.38352 138.719C2.6392 138.366 2.05398 137.866 1.62784 137.219C1.2017 136.571 0.988636 135.801 0.988636 134.909H3.06818C3.06818 135.403 3.19034 135.835 3.43466 136.205C3.68466 136.568 4.02557 136.852 4.45739 137.057C4.8892 137.261 5.38068 137.364 5.93182 137.364C6.53977 137.364 7.05682 137.236 7.48295 136.98C7.90909 136.724 8.23295 136.349 8.45455 135.855C8.68182 135.355 8.79545 134.744 8.79545 134.023V121.545ZM18.7244 139.307C17.8949 139.307 17.142 139.151 16.4659 138.838C15.7898 138.52 15.2528 138.062 14.8551 137.466C14.4574 136.864 14.2585 136.136 14.2585 135.284C14.2585 134.534 14.4063 133.926 14.7017 133.46C14.9972 132.989 15.392 132.619 15.8864 132.352C16.3807 132.085 16.9261 131.886 17.5227 131.756C18.125 131.619 18.7301 131.511 19.3381 131.432C20.1335 131.33 20.7784 131.253 21.2727 131.202C21.7727 131.145 22.1364 131.051 22.3636 130.92C22.5966 130.79 22.7131 130.562 22.7131 130.239V130.17C22.7131 129.33 22.483 128.676 22.0227 128.21C21.5682 127.744 20.8778 127.511 19.9517 127.511C18.9915 127.511 18.2386 127.722 17.6932 128.142C17.1477 128.562 16.7642 129.011 16.5426 129.489L14.6335 128.807C14.9744 128.011 15.429 127.392 15.9972 126.949C16.571 126.5 17.196 126.187 17.8722 126.011C18.554 125.83 19.2244 125.739 19.8835 125.739C20.304 125.739 20.7869 125.79 21.3324 125.892C21.8835 125.989 22.4148 126.19 22.9261 126.497C23.4432 126.804 23.8722 127.267 24.2131 127.886C24.554 128.506 24.7244 129.335 24.7244 130.375V139H22.7131V137.227H22.6108C22.4744 137.511 22.2472 137.815 21.929 138.139C21.6108 138.463 21.1875 138.739 20.6591 138.966C20.1307 139.193 19.4858 139.307 18.7244 139.307ZM19.0312 137.5C19.8267 137.5 20.4972 137.344 21.0426 137.031C21.5938 136.719 22.0085 136.315 22.2869 135.821C22.571 135.327 22.7131 134.807 22.7131 134.261V132.42C22.6278 132.523 22.4403 132.616 22.1506 132.702C21.8665 132.781 21.5369 132.852 21.1619 132.915C20.7926 132.972 20.4318 133.023 20.0795 133.068C19.733 133.108 19.4517 133.142 19.2358 133.17C18.7131 133.239 18.2244 133.349 17.7699 133.503C17.321 133.651 16.9574 133.875 16.679 134.176C16.4063 134.472 16.2699 134.875 16.2699 135.386C16.2699 136.085 16.5284 136.614 17.0455 136.972C17.5682 137.324 18.2301 137.5 19.0312 137.5ZM33.6797 144.182C32.7081 144.182 31.8729 144.057 31.174 143.807C30.4751 143.562 29.8928 143.239 29.4268 142.835C28.9666 142.438 28.6001 142.011 28.3274 141.557L29.9297 140.432C30.1115 140.67 30.3416 140.943 30.62 141.25C30.8984 141.562 31.2791 141.832 31.7621 142.06C32.2507 142.293 32.8899 142.409 33.6797 142.409C34.7365 142.409 35.6087 142.153 36.2962 141.642C36.9837 141.131 37.3274 140.33 37.3274 139.239V136.58H37.157C37.0092 136.818 36.799 137.114 36.5263 137.466C36.2592 137.812 35.8729 138.122 35.3672 138.395C34.8672 138.662 34.1911 138.795 33.3388 138.795C32.282 138.795 31.3331 138.545 30.4922 138.045C29.657 137.545 28.995 136.818 28.5064 135.864C28.0234 134.909 27.782 133.75 27.782 132.386C27.782 131.045 28.0178 129.878 28.4893 128.884C28.9609 127.884 29.6172 127.111 30.4581 126.565C31.299 126.014 32.2706 125.739 33.3729 125.739C34.2251 125.739 34.9013 125.881 35.4013 126.165C35.907 126.443 36.2933 126.761 36.5604 127.119C36.8331 127.472 37.0433 127.761 37.1911 127.989H37.3956V125.909H39.3388V139.375C39.3388 140.5 39.0831 141.415 38.5717 142.119C38.0661 142.83 37.3842 143.349 36.5263 143.679C35.674 144.014 34.7251 144.182 33.6797 144.182ZM33.6115 136.989C34.4183 136.989 35.1001 136.804 35.657 136.435C36.2138 136.065 36.6371 135.534 36.9268 134.841C37.2166 134.148 37.3615 133.318 37.3615 132.352C37.3615 131.409 37.2195 130.577 36.9354 129.855C36.6513 129.134 36.2308 128.568 35.674 128.159C35.1172 127.75 34.4297 127.545 33.6115 127.545C32.7592 127.545 32.049 127.761 31.4808 128.193C30.9183 128.625 30.495 129.205 30.2109 129.932C29.9325 130.659 29.7933 131.466 29.7933 132.352C29.7933 133.261 29.9354 134.065 30.2195 134.764C30.5092 135.457 30.9354 136.003 31.4979 136.401C32.0661 136.793 32.7706 136.989 33.6115 136.989ZM43.2933 139V121.545H45.407V137.125H53.5206V139H43.2933ZM60.3729 139.307C59.5433 139.307 58.7905 139.151 58.1143 138.838C57.4382 138.52 56.9013 138.062 56.5036 137.466C56.1058 136.864 55.907 136.136 55.907 135.284C55.907 134.534 56.0547 133.926 56.3501 133.46C56.6456 132.989 57.0405 132.619 57.5348 132.352C58.0291 132.085 58.5746 131.886 59.1712 131.756C59.7734 131.619 60.3786 131.511 60.9865 131.432C61.782 131.33 62.4268 131.253 62.9212 131.202C63.4212 131.145 63.7848 131.051 64.0121 130.92C64.245 130.79 64.3615 130.562 64.3615 130.239V130.17C64.3615 129.33 64.1314 128.676 63.6712 128.21C63.2166 127.744 62.5263 127.511 61.6001 127.511C60.6399 127.511 59.8871 127.722 59.3416 128.142C58.7962 128.562 58.4126 129.011 58.1911 129.489L56.282 128.807C56.6229 128.011 57.0774 127.392 57.6456 126.949C58.2195 126.5 58.8445 126.187 59.5206 126.011C60.2024 125.83 60.8729 125.739 61.532 125.739C61.9524 125.739 62.4354 125.79 62.9808 125.892C63.532 125.989 64.0632 126.19 64.5746 126.497C65.0916 126.804 65.5206 127.267 65.8615 127.886C66.2024 128.506 66.3729 129.335 66.3729 130.375V139H64.3615V137.227H64.2592C64.1229 137.511 63.8956 137.815 63.5774 138.139C63.2592 138.463 62.8359 138.739 62.3075 138.966C61.7791 139.193 61.1342 139.307 60.3729 139.307ZM60.6797 137.5C61.4751 137.5 62.1456 137.344 62.6911 137.031C63.2422 136.719 63.657 136.315 63.9354 135.821C64.2195 135.327 64.3615 134.807 64.3615 134.261V132.42C64.2763 132.523 64.0888 132.616 63.799 132.702C63.5149 132.781 63.1854 132.852 62.8104 132.915C62.4411 132.972 62.0803 133.023 61.728 133.068C61.3814 133.108 61.1001 133.142 60.8842 133.17C60.3615 133.239 59.8729 133.349 59.4183 133.503C58.9695 133.651 58.6058 133.875 58.3274 134.176C58.0547 134.472 57.9183 134.875 57.9183 135.386C57.9183 136.085 58.1768 136.614 58.6939 136.972C59.2166 137.324 59.8786 137.5 60.6797 137.5ZM70.3168 139V121.545H72.3281V127.989H72.4986C72.6463 127.761 72.8509 127.472 73.1122 127.119C73.3793 126.761 73.7599 126.443 74.2543 126.165C74.7543 125.881 75.4304 125.739 76.2827 125.739C77.3849 125.739 78.3565 126.014 79.1974 126.565C80.0384 127.116 80.6946 127.898 81.1662 128.909C81.6378 129.92 81.8736 131.114 81.8736 132.489C81.8736 133.875 81.6378 135.077 81.1662 136.094C80.6946 137.105 80.0412 137.889 79.206 138.446C78.3707 138.997 77.4077 139.273 76.3168 139.273C75.4759 139.273 74.8026 139.134 74.2969 138.855C73.7912 138.571 73.402 138.25 73.1293 137.892C72.8565 137.528 72.6463 137.227 72.4986 136.989H72.2599V139H70.3168ZM72.294 132.455C72.294 133.443 72.4389 134.315 72.7287 135.071C73.0185 135.821 73.4418 136.409 73.9986 136.835C74.5554 137.256 75.2372 137.466 76.044 137.466C76.8849 137.466 77.5866 137.244 78.1491 136.801C78.7173 136.352 79.1435 135.75 79.4276 134.994C79.7173 134.233 79.8622 133.386 79.8622 132.455C79.8622 131.534 79.7202 130.705 79.4361 129.966C79.1577 129.222 78.7344 128.634 78.1662 128.202C77.6037 127.764 76.8963 127.545 76.044 127.545C75.2259 127.545 74.5384 127.753 73.9815 128.168C73.4247 128.577 73.0043 129.151 72.7202 129.889C72.4361 130.622 72.294 131.477 72.294 132.455ZM91.973 139V121.545H97.8707C99.2344 121.545 100.354 121.778 101.229 122.244C102.104 122.705 102.751 123.338 103.172 124.145C103.592 124.952 103.803 125.869 103.803 126.898C103.803 127.926 103.592 128.838 103.172 129.634C102.751 130.429 102.107 131.054 101.237 131.509C100.368 131.957 99.2571 132.182 97.9048 132.182H93.1321V130.273H97.8366C98.7685 130.273 99.5185 130.136 100.087 129.864C100.661 129.591 101.075 129.205 101.331 128.705C101.592 128.199 101.723 127.597 101.723 126.898C101.723 126.199 101.592 125.588 101.331 125.065C101.07 124.543 100.652 124.139 100.078 123.855C99.5043 123.565 98.7457 123.42 97.8026 123.42H94.0866V139H91.973ZM100.189 131.159L104.484 139H102.03L97.8026 131.159H100.189ZM112.4 139.273C111.138 139.273 110.05 138.994 109.136 138.438C108.227 137.875 107.525 137.091 107.031 136.085C106.542 135.074 106.298 133.898 106.298 132.557C106.298 131.216 106.542 130.034 107.031 129.011C107.525 127.983 108.212 127.182 109.093 126.608C109.979 126.028 111.013 125.739 112.195 125.739C112.877 125.739 113.55 125.852 114.215 126.08C114.88 126.307 115.485 126.676 116.031 127.188C116.576 127.693 117.011 128.364 117.335 129.199C117.658 130.034 117.82 131.062 117.82 132.284V133.136H107.729V131.398H115.775C115.775 130.659 115.627 130 115.332 129.42C115.042 128.841 114.627 128.384 114.087 128.048C113.553 127.713 112.923 127.545 112.195 127.545C111.394 127.545 110.701 127.744 110.116 128.142C109.536 128.534 109.09 129.045 108.778 129.676C108.465 130.307 108.309 130.983 108.309 131.705V132.864C108.309 133.852 108.479 134.69 108.82 135.378C109.167 136.06 109.647 136.58 110.261 136.938C110.874 137.29 111.587 137.466 112.4 137.466C112.928 137.466 113.406 137.392 113.832 137.244C114.263 137.091 114.636 136.864 114.948 136.562C115.261 136.256 115.502 135.875 115.673 135.42L117.616 135.966C117.411 136.625 117.067 137.205 116.585 137.705C116.102 138.199 115.505 138.585 114.795 138.864C114.085 139.136 113.286 139.273 112.4 139.273ZM130.153 128.841L128.346 129.352C128.232 129.051 128.065 128.759 127.843 128.474C127.627 128.185 127.332 127.946 126.957 127.759C126.582 127.571 126.102 127.477 125.516 127.477C124.715 127.477 124.048 127.662 123.513 128.031C122.985 128.395 122.721 128.858 122.721 129.42C122.721 129.92 122.903 130.315 123.266 130.605C123.63 130.895 124.198 131.136 124.971 131.33L126.914 131.807C128.085 132.091 128.957 132.526 129.531 133.111C130.104 133.69 130.391 134.437 130.391 135.352C130.391 136.102 130.175 136.773 129.744 137.364C129.317 137.955 128.721 138.42 127.954 138.761C127.187 139.102 126.295 139.273 125.278 139.273C123.942 139.273 122.837 138.983 121.962 138.403C121.087 137.824 120.533 136.977 120.3 135.864L122.21 135.386C122.391 136.091 122.735 136.619 123.241 136.972C123.752 137.324 124.42 137.5 125.244 137.5C126.181 137.5 126.925 137.301 127.477 136.903C128.033 136.5 128.312 136.017 128.312 135.455C128.312 135 128.153 134.619 127.835 134.312C127.516 134 127.028 133.767 126.369 133.614L124.187 133.102C122.988 132.818 122.107 132.378 121.545 131.781C120.988 131.179 120.71 130.426 120.71 129.523C120.71 128.784 120.917 128.131 121.332 127.562C121.752 126.994 122.323 126.548 123.045 126.224C123.772 125.901 124.596 125.739 125.516 125.739C126.812 125.739 127.829 126.023 128.567 126.591C129.312 127.159 129.84 127.909 130.153 128.841ZM138.908 139.273C137.646 139.273 136.558 138.994 135.643 138.438C134.734 137.875 134.033 137.091 133.538 136.085C133.05 135.074 132.805 133.898 132.805 132.557C132.805 131.216 133.05 130.034 133.538 129.011C134.033 127.983 134.72 127.182 135.601 126.608C136.487 126.028 137.521 125.739 138.703 125.739C139.385 125.739 140.058 125.852 140.723 126.08C141.388 126.307 141.993 126.676 142.538 127.188C143.084 127.693 143.518 128.364 143.842 129.199C144.166 130.034 144.328 131.062 144.328 132.284V133.136H134.237V131.398H142.283C142.283 130.659 142.135 130 141.839 129.42C141.55 128.841 141.135 128.384 140.595 128.048C140.061 127.713 139.43 127.545 138.703 127.545C137.902 127.545 137.209 127.744 136.624 128.142C136.044 128.534 135.598 129.045 135.286 129.676C134.973 130.307 134.817 130.983 134.817 131.705V132.864C134.817 133.852 134.987 134.69 135.328 135.378C135.675 136.06 136.155 136.58 136.768 136.938C137.382 137.29 138.095 137.466 138.908 137.466C139.436 137.466 139.913 137.392 140.339 137.244C140.771 137.091 141.143 136.864 141.456 136.562C141.768 136.256 142.01 135.875 142.18 135.42L144.124 135.966C143.919 136.625 143.575 137.205 143.092 137.705C142.609 138.199 142.013 138.585 141.303 138.864C140.592 139.136 139.794 139.273 138.908 139.273ZM151.24 139.307C150.411 139.307 149.658 139.151 148.982 138.838C148.305 138.52 147.768 138.062 147.371 137.466C146.973 136.864 146.774 136.136 146.774 135.284C146.774 134.534 146.922 133.926 147.217 133.46C147.513 132.989 147.908 132.619 148.402 132.352C148.896 132.085 149.442 131.886 150.038 131.756C150.641 131.619 151.246 131.511 151.854 131.432C152.649 131.33 153.294 131.253 153.788 131.202C154.288 131.145 154.652 131.051 154.879 130.92C155.112 130.79 155.229 130.562 155.229 130.239V130.17C155.229 129.33 154.999 128.676 154.538 128.21C154.084 127.744 153.393 127.511 152.467 127.511C151.507 127.511 150.754 127.722 150.209 128.142C149.663 128.562 149.28 129.011 149.058 129.489L147.149 128.807C147.49 128.011 147.945 127.392 148.513 126.949C149.087 126.5 149.712 126.187 150.388 126.011C151.07 125.83 151.74 125.739 152.399 125.739C152.82 125.739 153.303 125.79 153.848 125.892C154.399 125.989 154.93 126.19 155.442 126.497C155.959 126.804 156.388 127.267 156.729 127.886C157.07 128.506 157.24 129.335 157.24 130.375V139H155.229V137.227H155.126C154.99 137.511 154.763 137.815 154.445 138.139C154.126 138.463 153.703 138.739 153.175 138.966C152.646 139.193 152.001 139.307 151.24 139.307ZM151.547 137.5C152.342 137.5 153.013 137.344 153.558 137.031C154.109 136.719 154.524 136.315 154.803 135.821C155.087 135.327 155.229 134.807 155.229 134.261V132.42C155.143 132.523 154.956 132.616 154.666 132.702C154.382 132.781 154.053 132.852 153.678 132.915C153.308 132.972 152.947 133.023 152.595 133.068C152.249 133.108 151.967 133.142 151.751 133.17C151.229 133.239 150.74 133.349 150.286 133.503C149.837 133.651 149.473 133.875 149.195 134.176C148.922 134.472 148.786 134.875 148.786 135.386C148.786 136.085 149.044 136.614 149.561 136.972C150.084 137.324 150.746 137.5 151.547 137.5ZM160.911 139V125.909H162.854V127.886H162.991C163.229 127.239 163.661 126.713 164.286 126.31C164.911 125.906 165.616 125.705 166.4 125.705C166.548 125.705 166.732 125.707 166.954 125.713C167.175 125.719 167.343 125.727 167.457 125.739V127.784C167.388 127.767 167.232 127.741 166.988 127.707C166.749 127.668 166.496 127.648 166.229 127.648C165.593 127.648 165.025 127.781 164.525 128.048C164.031 128.31 163.638 128.673 163.349 129.139C163.065 129.599 162.923 130.125 162.923 130.716V139H160.911ZM174.761 139.273C173.533 139.273 172.477 138.983 171.59 138.403C170.704 137.824 170.022 137.026 169.545 136.009C169.067 134.991 168.829 133.83 168.829 132.523C168.829 131.193 169.073 130.02 169.562 129.003C170.056 127.98 170.744 127.182 171.624 126.608C172.511 126.028 173.545 125.739 174.727 125.739C175.647 125.739 176.477 125.909 177.215 126.25C177.954 126.591 178.559 127.068 179.031 127.682C179.502 128.295 179.795 129.011 179.908 129.83H177.897C177.744 129.233 177.403 128.705 176.874 128.244C176.352 127.778 175.647 127.545 174.761 127.545C173.977 127.545 173.289 127.75 172.698 128.159C172.113 128.562 171.656 129.134 171.326 129.872C171.002 130.605 170.84 131.466 170.84 132.455C170.84 133.466 170.999 134.347 171.317 135.097C171.641 135.847 172.096 136.429 172.681 136.844C173.272 137.259 173.965 137.466 174.761 137.466C175.283 137.466 175.758 137.375 176.184 137.193C176.61 137.011 176.971 136.75 177.266 136.409C177.562 136.068 177.772 135.659 177.897 135.182H179.908C179.795 135.955 179.513 136.651 179.065 137.27C178.621 137.884 178.033 138.372 177.3 138.736C176.573 139.094 175.727 139.273 174.761 139.273ZM184.86 131.125V139H182.849V121.545H184.86V127.955H185.031C185.337 127.278 185.798 126.741 186.411 126.344C187.031 125.94 187.854 125.739 188.883 125.739C189.775 125.739 190.556 125.918 191.227 126.276C191.897 126.628 192.417 127.17 192.786 127.903C193.161 128.631 193.349 129.557 193.349 130.682V139H191.337V130.818C191.337 129.778 191.067 128.974 190.528 128.406C189.994 127.832 189.252 127.545 188.303 127.545C187.644 127.545 187.053 127.685 186.531 127.963C186.013 128.241 185.604 128.648 185.303 129.182C185.008 129.716 184.86 130.364 184.86 131.125Z" fill="black"/>
</svg>
